<svg xmlns="http://www.w3.org/2000/svg" viewBox="0 0 128 128">
  <defs>
    <linearGradient id="grad" x1="0%" y1="0%" x2="100%" y2="100%">
      <stop offset="0%" style="stop-color:#667eea;stop-opacity:1" />
      <stop offset="100%" style="stop-color:#764ba2;stop-opacity:1" />
    </linearGradient>
  </defs>
  <!-- Background circle -->
  <circle cx="64" cy="64" r="60" fill="url(#grad)"/>
  <!-- Brain/AI icon -->
  <path d="M64 30c-18.8 0-34 15.2-34 34s15.2 34 34 34 34-15.2 34-34-15.2-34-34-34zm0 62c-15.5 0-28-12.5-28-28s12.5-28 28-28 28 12.5 28 28-12.5 28-28 28z" fill="white" opacity="0.3"/>
  <!-- Recommendation stars -->
  <path d="M64 42l4 12h12l-10 8 4 12-10-8-10 8 4-12-10-8h12z" fill="#FFD700"/>
  <path d="M42 58l3 8h8l-6 5 2 8-7-5-7 5 2-8-6-5h8z" fill="#FFD700" opacity="0.8"/>
  <path d="M86 58l3 8h8l-6 5 2 8-7-5-7 5 2-8-6-5h8z" fill="#FFD700" opacity="0.8"/>
  <!-- AI brain connection lines -->
  <circle cx="64" cy="64" r="8" fill="white"/>
  <line x1="64" y1="56" x2="64" y2="48" stroke="white" stroke-width="2" opacity="0.7"/>
  <line x1="64" y1="72" x2="64" y2="80" stroke="white" stroke-width="2" opacity="0.7"/>
  <line x1="56" y1="64" x2="48" y2="64" stroke="white" stroke-width="2" opacity="0.7"/>
  <line x1="72" y1="64" x2="80" y2="64" stroke="white" stroke-width="2" opacity="0.7"/>
</svg>
